<?xml version="1.0" standalone="no"?>
<!DOCTYPE svg PUBLIC "-//W3C//DTD SVG 20010904//EN"
 "http://www.w3.org/TR/2001/REC-SVG-20010904/DTD/svg10.dtd">
<svg version="1.0" xmlns="http://www.w3.org/2000/svg"
 width="260.000000pt" height="260.000000pt" viewBox="0 0 260.000000 260.000000"
 preserveAspectRatio="xMidYMid meet">
<metadata>
Created by potrace 1.11, written by Peter Selinger 2001-2013
</metadata>
<g transform="translate(0.000000,260.000000) scale(0.100000,-0.100000)"
fill="#000000" stroke="none">
<path d="M129 2573 c-2 -13 8 -118 16 -168 3 -16 7 -52 10 -80 3 -27 8 -68 10
-90 3 -22 9 -75 14 -118 6 -48 16 -86 26 -97 18 -20 10 -29 -20 -24 -11 2 -29
2 -40 -1 -20 -4 -20 -12 -19 -419 0 -375 2 -417 17 -434 18 -20 14 -34 -9 -25
-11 4 -14 -7 -14 -50 0 -49 3 -58 27 -75 27 -19 27 -21 28 -141 l1 -122 355
-354 354 -355 793 0 792 0 0 962 0 962 -320 318 -320 318 -80 0 -80 0 0 -47 0
-48 -45 48 -46 47 -79 0 c-85 0 -88 -2 -81 -57 3 -21 -10 -15 -45 22 l-33 35
-110 0 c-99 0 -111 -2 -112 -17 0 -18 -3 -36 -15 -102 l-5 -34 -77 76 -77 77
-208 0 -207 0 0 -22 -1 -23 -18 23 c-17 20 -28 22 -106 22 -51 0 -84 -4 -80
-9 3 -5 0 -13 -6 -17 -6 -4 -16 1 -21 10 -7 13 -25 16 -88 16 -44 0 -81 -3
-81 -7z"/>
</g>
</svg>
